<svg xmlns="http://www.w3.org/2000/svg" xmlns:xlink="http://www.w3.org/1999/xlink" width="52" height="67">
  <defs/>
  <defs>
    <path id="b" d="M1.085.3845v1H.9834v-1h.1016z"/>
    <path id="d" d="M1.3407 1h-1V.3387h1z"/>
    <path id="f" d="M1.085.1179v1H.1685v-1h.9165z"/>
    <path id="h" d="M1.085.5607V1H.1683V.5607h.9167z"/>
    <path id="j" d="M7.04225 21H0V.502h14.0845V21H7.04225z"/>
    <filter id="a" width="206.7%" height="169.6%" x="-53.3%" y="-34.8%" filterUnits="objectBoundingBox">
      <feOffset dy="1" in="SourceAlpha" result="shadowOffsetOuter1"/>
      <feGaussianBlur in="shadowOffsetOuter1" result="shadowBlurOuter1" stdDeviation="1.5"/>
      <feColorMatrix in="shadowBlurOuter1" result="shadowMatrixOuter1" values="0 0 0 0 0 0 0 0 0 0 0 0 0 0 0 0 0 0 0.2 0"/>
      <feMerge>
        <feMergeNode in="shadowMatrixOuter1"/>
        <feMergeNode in="SourceGraphic"/>
      </feMerge>
    </filter>
  </defs>
  <g fill="none" fill-rule="evenodd" transform="translate(-154 -649)">
    <circle cx="180" cy="675" r="25.5" stroke="#0ED998"/>
    <g filter="url(#a)" transform="rotate(-15 2718.53516889 -330.9157472)">
      <path fill="#FFF" d="M10.0266 12.0881c.001-.002.003-.005.004-.007l.022.082-.026-.075zm1.495 5.472c0-.104.033-.205.092-.29l.848-1.194c.354-.499.542-1.088.542-1.703v-4.876c0-2.075-.221-2.417-.976-2.481v1.481c0 .277-.223.5-.5.5-.276 0-.5-.223-.5-.5v-1.925c-.058-.176-.288-.653-1.058-.643v2.568c0 .277-.224.5-.5.5-.277 0-.5-.223-.5-.5v-2.903c-.094-.166-.371-.552-.885-.597v3.5c0 .277-.224.5-.5.5-.277 0-.5-.223-.5-.5v-3.424c-.001-.012-.007-.022-.007-.034v-2.042c0-.558-.387-.986-.9-.997-.547.012-1.064.487-1.064.997v7.157c0 .212-.133.4-.332.471-.196.072-.421.009-.555-.153l-1.527-1.862c-.176-.176-.44-.291-.712-.291h-.001c-.272 0-.536.115-.744.325-.328.333-.316.891.026 1.244l1.38 1.976c.619.889 1.117 1.86 1.479 2.884.329 1.004 1.099 2.473 1.718 2.473.275 0 .499.223.5.499l.001.777h5.175v-.937z"/>
      <g transform="translate(13 8.4976)">
        <mask id="c" fill="#fff">
          <use xlink:href="#b"/>
        </mask>
        <path fill="#FFF" d="M.9834.3845c.005.113.009.227.011.349-.002-.12-.005-.239-.011-.349" mask="url(#c)"/>
      </g>
      <g transform="translate(4 20.4976)">
        <mask id="e" fill="#fff">
          <use xlink:href="#d"/>
        </mask>
        <path fill="#FFF" d="M.3407.3387c.162.239.391.43.66.543-.269-.113-.498-.304-.66-.543" mask="url(#e)"/>
      </g>
      <g transform="translate(13 18.4976)">
        <mask id="g" fill="#fff">
          <use xlink:href="#f"/>
        </mask>
        <path fill="#FFF" d="M.1685.1179c.179.076.341.186.477.321-.136-.135-.298-.245-.477-.321" mask="url(#g)"/>
      </g>
      <path fill="#FFF" d="M5.0008 18.6155c-.269.114-.498.304-.66.543.162-.239.391-.429.66-.543M12.5845 19.4976h-7c-.276 0-.5.224-.5.5s.224.5.5.5h7c.276 0 .5-.224.5-.5s-.224-.5-.5-.5"/>
      <g transform="translate(13 20.4976)">
        <mask id="i" fill="#fff">
          <use xlink:href="#h"/>
        </mask>
        <path fill="#FFF" d="M.6453.5607c-.136.136-.297.246-.477.321.18-.075.341-.185.477-.321" mask="url(#i)"/>
      </g>
      <g transform="translate(0 .4976)">
        <mask id="k" fill="#fff">
          <use xlink:href="#j"/>
        </mask>
        <path fill="#000" d="M12.5845 20h-7c-.276 0-.5-.224-.5-.5s.224-.5.5-.5h7c.276 0 .5.224.5.5s-.224.5-.5.5zm-6.237-2l-.002-.778c-.001-.276-.225-.499-.5-.499-.618 0-1.389-1.469-1.718-2.472-.362-1.025-.859-1.996-1.479-2.884l-1.379-1.976c-.343-.353-.355-.912-.027-1.244.208-.21.472-.326.744-.326h.001c.272 0 .536.116.712.292l1.528 1.861c.133.163.358.226.554.153.199-.071.332-.259.332-.47V2.5c0-.511.517-.986 1.064-.998.513.011.9.44.9.998v2.042c0 .012.006.022.007.033V8c0 .276.224.5.5.5s.5-.224.5-.5V4.499c.514.046.791.431.885.598V8c0 .276.223.5.5.5.276 0 .5-.224.5-.5V5.431c.77-.009 1 .468 1.058.643V8c0 .276.224.5.5.5.277 0 .5-.224.5-.5V6.519c.755.064.976.406.976 2.481v4.875c0 .616-.188 1.205-.542 1.704l-.848 1.194c-.059.085-.091.186-.091.289V18h-5.175zm7.298.439c-.136-.135-.298-.245-.477-.321-.179-.076-.377-.118-.584-.118h-.062v-.778l.755-1.064c.475-.67.726-1.459.726-2.283V9c0-.099-.007-.173-.009-.266-.002-.122-.006-.236-.011-.35-.099-2.34-.774-2.805-2.109-2.873-.281-.553-.939-1.176-2.139-1.071-.233-.34-.704-.798-1.448-.907-.062-.028-.13-.045-.203-.045h-.007V2.5c0-1.099-.825-1.976-1.9-1.998-1.118.023-2.064.938-2.064 1.998v5.761l-.672-.817c-.395-.402-.912-.623-1.454-.623h-.001c-.541 0-1.058.221-1.455.623-.708.717-.699 1.902-.032 2.58l1.329 1.913c.568.816 1.024 1.707 1.352 2.636.153.467.909 2.589 2.166 3.058l.001.393c-.121.019-.238.048-.347.094-.269.114-.498.304-.66.543-.162.24-.256.528-.256.839 0 .311.094.599.256.839.162.239.391.429.66.543.18.076.377.118.584.118h7c.207 0 .405-.042.584-.118.179-.076.341-.186.477-.321.271-.272.439-.647.439-1.061 0-.414-.168-.789-.439-1.061z" mask="url(#k)"/>
      </g>
    </g>
  </g>
</svg>