<?xml version="1.0" encoding="UTF-8"?>
<svg width="24" height="24" xmlns="http://www.w3.org/2000/svg" xmlns:xlink="http://www.w3.org/1999/xlink">
  <defs>
    <path d="M4.5 3C5.32842712 3 6 3.67157288 6 4.5v15c0 .8284271-.67157288 1.5-1.5 1.5S3 20.3284271 3 19.5v-15C3 3.67157288 3.67157288 3 4.5 3zm5 0c.8284271 0 1.5.67157288 1.5 1.5v15c0 .8284271-.6715729 1.5-1.5 1.5-.82842712 0-1.5-.6715729-1.5-1.5v-15C8 3.67157288 8.67157288 3 9.5 3zm4.9071025.00749791c.7832933-.26970949 1.6369206.14663239 1.9066301.92992563l5.2090905 15.12829716c.2697095.7832933-.1466324 1.6369207-.9299256 1.9066301-.7832933.2697095-1.6369206-.1466324-1.9066301-.9299256L13.4771769 4.914128c-.2697095-.78329323.1466324-1.6369206.9299256-1.90663009z" id="a"/>
  </defs>
  <use fill="#44D7B6" fill-rule="nonzero" xlink:href="#a"/>
</svg>